<?xml version="1.0" standalone="no"?><!DOCTYPE svg PUBLIC "-//W3C//DTD SVG 1.1//EN" "http://www.w3.org/Graphics/SVG/1.1/DTD/svg11.dtd"><svg class="icon" width="200px" height="200.00px" viewBox="0 0 1024 1024" version="1.1" xmlns="http://www.w3.org/2000/svg"><path d="M511.999488 655.326313c-76.517721 0-138.76953-62.250786-138.76953-138.768507s62.251809-138.76953 138.76953-138.76953c76.516698 0 138.768507 62.251809 138.768507 138.76953S588.516186 655.326313 511.999488 655.326313zM511.999488 416.673911c-55.076386 0-99.883895 44.807509-99.883895 99.883895 0 55.075363 44.807509 99.882871 99.883895 99.882871 55.075363 0 99.882871-44.807509 99.882871-99.882871C611.88236 461.48142 567.074851 416.673911 511.999488 416.673911zM960.482873 531.446911c-7.040347 0.001023-13.8351-3.835352-17.289782-10.521634-35.639708-68.973908-99.196233-133.827985-174.370353-177.932482-76.656891-45.420469-167.369915-70.383-255.617795-70.383-0.773619 0-1.545192 0-2.317789 0-88.348164 0-179.051979 24.959461-255.640308 70.341045-75.247798 44.147476-138.804323 109.001553-174.443008 177.974437-4.929266 9.540284-16.656355 13.279445-26.198685 8.348132-9.53926-4.929266-13.277398-16.658402-8.348132-26.198685 38.922475-75.325569 107.897406-145.897881 189.240015-193.620789 41.174772-24.397666 85.84618-43.334971 132.702348-56.245002 47.355541-13.047154 95.715969-19.6045 143.847176-19.48375 48.006364-0.075725 96.396467 6.436596 143.750985 19.48375 46.856168 12.910031 91.527576 31.847336 132.775003 56.286957 81.269955 47.679929 150.244886 118.252241 189.167361 193.57781 4.929266 9.53926 1.192152 21.269419-8.348132 26.198685C966.538799 530.74697 963.488323 531.446911 960.482873 531.446911zM513.240759 795.45684c-0.859577 0-1.716084 0-2.575662 0-47.578622 0-95.531773-6.554276-142.465712-19.485797-46.856168-12.909008-91.527576-31.846312-132.773979-56.286957-81.269955-47.680952-150.244886-118.253264-189.167361-193.57781-4.929266-9.53926-1.192152-21.269419 8.348132-26.198685s21.268396-1.192152 26.198685 8.348132c35.639708 68.973908 99.19521 133.827985 174.370353 177.932482 76.656891 45.420469 167.369915 70.381977 255.617795 70.381977 0.772596 0 1.545192 0 2.317789 0 88.348164 0 179.050955-24.959461 255.639285-70.338998 75.246775-44.148499 138.803299-109.002576 174.444031-177.975461 4.930289-9.540284 16.658402-13.274328 26.199709-8.348132 9.53926 4.929266 13.277398 16.659425 8.347109 26.198685-38.923498 75.326593-107.898429 145.898905-189.241039 193.620789-41.173748 24.397666-85.84618 43.334971-132.702348 56.243979C608.8677 788.901541 560.908408 795.455817 513.240759 795.45684z" fill="#c7c7c7" /></svg>