<?xml version="1.0" standalone="no"?><!DOCTYPE svg PUBLIC "-//W3C//DTD SVG 1.1//EN" "http://www.w3.org/Graphics/SVG/1.1/DTD/svg11.dtd"><svg class="icon" width="200px" height="200.00px" viewBox="0 0 1024 1024" version="1.1" xmlns="http://www.w3.org/2000/svg"><path d="M258.751159 949.264878c-5.327332 0-10.598382-2.365884-14.129812-6.889921-6.085602-7.79657-4.697999-19.049868 3.098571-25.13547 34.776038-27.142174 108.914572-27.681456 117.255541-27.668153l417.064814 0c47.039339 0 67.850317-21.741163 88.934518-93.02058l65.529459-262.209934c9.55461-60.109006-7.267521-94.878904-23.101137-113.483634-16.753569-19.685341-40.647769-30.975479-65.555042-30.975479l-161.469532 0.588401c-0.021489 0-0.044002 0-0.064468 0-6.574742 0-12.621459-3.603061-15.751752-9.387811-3.139503-5.804193-2.832512-12.865006 0.799202-18.375509l66.13935-100.349499c24.540929-48.712445 26.975375-93.591585 7.233752-133.409452-14.539134-29.322839-36.31816-45.200458-36.534078-45.351907-0.119727-0.084934-0.23843-0.170892-0.357134-0.257873-15.603373-11.577686-29.503964-15.71082-41.314964-12.283768-19.033495 5.519714-32.131815 29.896914-35.574217 38.823214-0.177032 0.468674-0.350994 0.871857-0.566912 1.324158-31.169907 65.404616-69.639057 120.516818-114.338095 163.80881-36.058241 34.922371-76.208683 62.257949-119.333876 81.248466-70.653153 31.110555-125.927037 29.53978-132.969431 29.193903L132.74942 385.452839c-0.871857 0.028653-12.990872 0.543376-24.295336 7.150864-14.415314 8.426927-21.298072 23.044856-21.040199 44.685735 0.001023 0.071631 0.001023 0.14224 0.001023 0.213871l0 401.447115c0.765433 21.834284 8.543583 37.331233 23.122627 46.063105 10.786671 6.459109 21.509896 7.119141 21.61325 7.123234 0.040932 0.001023 0.081864 0.00307 0.121773 0.004093l28.053939 1.203408-0.484024-74.68191c0-0.038886 0-0.076748 0-0.115634L159.842475 446.554452c0-9.890254 8.017604-17.907858 17.907858-17.907858s17.907858 8.017604 17.907858 17.907858l0 371.94622 0.605797 93.422739c0.031722 4.90266-1.947352 9.603729-5.476735 13.007245-3.529383 3.402493-8.295943 5.216815-13.19758 5.000897l-46.794769-2.006703c-2.308579-0.091074-20.214391-1.139963-38.657438-12.18553-17.714454-10.608615-39.123043-32.389688-40.527019-75.911924-0.00614-0.192382-0.00921-0.385786-0.00921-0.577145L51.601238 437.605639c-0.294712-26.488281 7.372921-47.865147 22.789029-63.534012 23.222911-23.604604 54.615898-24.420179 58.118676-24.435529l131.730207 0c0.38988 0 0.779759 0.01228 1.168616 0.037862 0.460488 0.028653 52.299133 2.710738 118.740358-27.0204 38.935778-17.423835 75.278497-42.446741 108.020202-74.373894 41.056068-40.035832 76.593446-91.152023 105.626689-151.932318 2.675946-6.653537 20.865213-48.556902 58.533115-59.627029 23.155373-6.803963 47.63388-0.826831 72.747861 17.769712 3.025916 2.184759 29.688159 22.116717 47.749514 58.547441 17.300015 34.891671 29.981848 92.090395-7.845689 166.43973-0.303922 0.596588-0.64059 1.175779-1.00898 1.734504l-48.323589 73.318866 128.139425-0.466628c35.490306 0 69.324902 15.883759 92.894713 43.577494 20.790512 24.429389 43.057655 69.095681 31.063483 143.156444-0.080841 0.496304-0.183172 0.99056-0.304945 1.478677l-65.808822 263.325337c-0.061398 0.243547-0.12689 0.48607-0.197498 0.727571-21.693068 73.501014-49.901527 119.055536-123.391285 119.055536L364.919177 925.385005c-0.13917 0-0.279363-0.001023-0.419556-0.001023-26.892487 0-75.954903 5.423523-94.742804 20.088524C266.485307 948.026678 262.602883 949.264878 258.751159 949.264878z" fill="#c7c7c7" /><path d="M224.410026 412.662551" fill="#c7c7c7" /></svg>